/* XPM */
static char *f8471fca3898499d8515f665dbb81d098euQDmfNxFE7K4Xg[] = {
/* columns rows colors chars-per-pixel */
"65 65 12 1 ",
"  c None",
". c #141B1B",
"X c #3B3643",
"o c #4E484A",
"O c #695953",
"+ c #E66A3A",
"@ c #965340",
"# c #816855",
"$ c #BD7959",
"% c #F38C4C",
"& c #F2AD7D",
"* c #FFCB8D",
/* pixels */
"XXXXXXXXXXXXXXXXXXXXXXXXXXXXXXXXXXXXXXXXXXXXXXXXXXXXXXXXXXXXXXXXX",
"XXXXXXXXXXXXXXXXXXXXXXXXXXXXXXXXXXXXXXXXXXXXXXXXXXXXXXXXXXXXXXXXX",
"XXXooooXXoooooooXoooooooXoooooooXoooooooXoooooooXXXXXXXXXoooooXXX",
"XXoooOOOoOOOOOOOoOOOOOOOoOOOOOOOoOOOOOOOoOOOOOOOooooooooooOOOooXX",
"XXXoOOOoooOOOOOoooOOOOOoooOOOOOoooOOOOOoooOOOOOoooooooooooOOOOoXX",
"XXXXooooooooooooooooooooooooooooooooooooooooooooooooooooooooooXXX",
"XXoXooo#####oooOOOOOooo#####oooOOOOOooo#####oooOOOOOooo#####ooXXX",
"XXooOo#######oOOOOOOOo#######oOOOOOOOo#######oOOOOOOOo#######oXXX",
"XXooOo####OOOoOOOOOOOo####OOOoOOOOOOOoOOOOOOOoOOOOOOOoOOO####oXXX",
"XXoXooo####OoooOOOOOooo####OoooOOOOOoooOOOOOoooOOOOOoooOO###ooXXX",
"XXXXooooooooooooooooooooooooooooooooooooooooooooooooooooooooooXXX",
"XXXoOOOOoooooooooooOOOOOoooooooooooOOOOOoooOOOOOoooOOOOOoooOOOoXX",
"XXooOOOOOoooooooooOOOOOOO$$$$$$oooOOOOOOOoOOOOOOOoOOOOOOOoOOOOooX",
"XXooOOOOOoooooXXXoOOOOOO$&&&&$$$XXoo$$$$$$$OOOOOOXooOOOOOoOOOOooX",
"XXXoOOOOooooooXXXooOOOO$&&&$$$$$$XX$&&&&&&$$OOOOoXXoOOOOoooOOOoXX",
"XXXXooooooooooXXXooooo$&&&&$$$$$$$$&&&&&$$$$$ooooXXXooooooooooXXX",
"XXXXooooooooooooooo$$$&&&&&&$$$$$$&&&&&&&$$$$$ooooooooooooooooXXX",
"XXXoOOOooo#####ooo$&&&&&&&&$$$$$$$&&&&&&&$$$$$$ooo#####oooOOOOoXX",
"XXXoOOOOo#######o$&&&&&&&&$$&&&&&$$&&&&&&&$$$$$$o#######oOOOOOooX",
"XXXoOOOOo#######$&&&&&&&&$$&&&&&&&$&&&&&&&&$$$$$@#######oOOOOOooX",
"XXXoOOOooo#####o$&&&&&&&$$&&&&&&&&&&&&&&&&&&$$$$@o#####oooOOOOoXX",
"XXXXoooooooooooo$*&&&&&&..&&&&&&&&&&&&&..&&&$$$$$@ooooooooooooXXX",
"XXoooooOOOOOooo$&&*&&&..%%.............%%..&&@$$$@OOoooOO###ooXXX",
"XXooOoOOOOOOOo$&&&&*&.%@%%@%%%%%%%%%%%@%%@%.@@@$$@OOOoOOO####oXXX",
"XXooOoOOO#OOOo$&&&&**.++@@+++++++++++++@@++.@@@@$$@OOoOOO####oXXX",
"XXoooooOO##Oo$&&&&&**.@++++%%+++++++%%++++@.@@@@@$@OoooOO###ooXXX",
"XXXXooooooooo$&&&&&*$.+++++++++++++++++++++.@@@@@@@oooooooooooXXX",
"XXXoOOOOoooo$&&&&&&$$.++++++%%%%%%%%%++++++.@@@@@@@OOOOOooooooXXX",
"XXXoOOOOOooo$&&&&&&$$.+++++++++++++++++++++.$$@@@@@OOOOOOoooooXXX",
"XXXoOOOOOoo$&&&&&&&$$.+++++%%%%%%%%%%%+++++.$$$@@@@@OOOOOoooooXXX",
"XXXoOOOOooo$&&&&&&$$$.+++++++++++++++++++++.$$$$@@@@OOOOooooooXXX",
"XXXXoooooo$&&&&&&&$$$.@@+++%%%++++%%%%+++@@.$$$$$@@@@oooooooooXXX",
"XXXXooooo$**&&$&&&$$$@++%%+++++++++++++%%++@$$$$@@@@@oooooooooXXX",
"XXXoOOOoo$**&&&$$$$$$$@@%%@@@@@@@@@@@@@%%@@$$$$@@@@@@@OoooOOOOoXX",
"XXXoOOOOo@&**&&&$$$$$$@@@@@@@@@@@@@@@@@@@@@$$$@@$$$@@@OOoOOOOOooX",
"XXXoOOOOo@&&&&&&&&$$$$$@$@@...........@@@@$$$$$$$$$$@@@OoOOOOOooX",
"XXXoOOOooo@*&&&&&&&$$$$$$@.............@@$$$$$$$$$$$@@@oooOOOOoXX",
"XXXXoooooo@$&&&&&&$$$$$$@...............@$$$$$$$$$$$$@@oooooooXXX",
"XXoooooOO$&$$&&&&$$$$$$$@...............@$$$$$$$$$$$$@@@O###ooXXX",
"XXooOoOO$&&&$$$&$$$$$$$$@...............@$@@@$$$$$$$$@@@#####oXXX",
"XXooOoOO@&&&&$$$$$$$$$$$@...............@@@@$$$$$$$$@@@@#####oXXX",
"XXoooooO@&&&&&&$$$$$$$$@................@@&$$$$$$$$@@@@@####ooXXX",
"XXXXoooo@$&&&&$$$$$$$$@.................@&&$$$$$@@@@@@@@ooooooXXX",
"XXXoOOOO@$$&&$$$&&&$$@@.................&&$$$$$@$$$$@@@@ooooooXXX",
"XXXoOOOO@$$$$$$&&&&$$$@@................&$$$$$*$$$$$$@@@OoooooXXX",
"XXXoOOOO@$$$$$&&&&$$$$@@@...............$$$$$&**$$$$$$@OOoooooXXX",
"XXXoOOOOo$$$$&&&&$$$$@@@@....@@@@@@@....$$$$&&&*$$$$$@OOooooooXXX",
"XXXXoooooooo@&&$$$$$&&$@@..@@@@@@@@@@@..$$$&&&$$$$$$@@ooooooooXXX",
"XXXXoooooooo@&&$$$$&&$$$@.@@@@@@@@@@@@@.@$$&&$$$$$$$@@ooooooooXXX",
"XXXXooooooOOO@@$$$$$$$$$ooOOOOoXXXXoOOOoooO&$$$$$$$$@@OoooOOOOoXX",
"XXXXoooooOOOOOoo$$@$$$$#oOOOOOooXoooOOOOoOOO$$$$$$$$@OOOoOOOOOooX",
"XXXXoooooOOOOOOOo#######oOOOOOOOoOOOOOOOoOOOO$$$$$$OOOOOoOOOOOooX",
"XXXXooooooOOOOOooo#####oooOOOOOoooOOOOOoooOOOOOoooOOOOOoooOOOOoXX",
"XXXXooooooooooooooooooooooooooooooooooooooooooooooooooooooooooXXX",
"XXXoooo#####oooOOOOOoooOO###oooOOOOOooo#OOOOoooOOOOOooo#OOOOooXXX",
"XXXoOo#######oOOOOOOOoOOO####oOOOOOOOo###OOOOoOOOOOOOo###OOOOoXXX",
"XXXoOo#######oOOOOOOOoOOOOOOOoOOOOOOOoOOOOOOOoOOOOOOOoOOOOOOOoXXX",
"XXXoooo#####oooOOOOOoooOOOOOoooOOOOOoooOOOOOoooOOOOOoooOOOOOooXXX",
"XXXXooooooooooooooooooooooooooooooooooooooooooooooooooooooooooXXX",
"XXXoOOOOoooOOOOOoooOOOOOoooooooooooOOOOOoooooooooooOOOOOoooOOOoXX",
"XXXXoOOOOoOOOOOOooOOOOOOOoooooooooOOOOOOOoooooooooOOOOOOOoOOOOoXX",
"XXXXXooooXoooooooXoooooooXXXXXXXXXoooooooXXXXXXXXXoooooooXoooooXX",
"XXXXXXXXXXXXXXXXXXXXXXXXXXXXXXXXXXXXXXXXXXXXXXXXXXXXXXXXXXXXXXXXX",
"XXXXXXXXXXXXXXXXXXXXXXXXXXXXXXXXXXXXXXXXXXXXXXXXXXXXXXXXXXXXXXXXX",
" XXXooooooooooXXXoooooooooooooXXXXXXoooooooooooooXXXooooooooooXXX"
};
