/* XPM */
static char *db4ae8141b7841e3ba6c4b8971e07c76I4Jx3UIiwNk5p6tH[] = {
/* columns rows colors chars-per-pixel */
"65 65 5 1 ",
"  c None",
". c #3B3643",
"X c #4E484A",
"o c #695953",
"O c #816855",
/* pixels */
".................................................................",
".................................................................",
"...XXXX..XXXXXXX.XXXXXXX.XXXXXXX.XXXXXXX.XXXXXXX.........XXXXX...",
"..XXXoooXoooooooXoooooooXoooooooXoooooooXoooooooXXXXXXXXXXoooXX..",
"...XoooXXXoooooXXXoooooXXXoooooXXXoooooXXXoooooXXXXXXXXXXXooooX..",
"....XXXXXXXXXXXXXXXXXXXXXXXXXXXXXXXXXXXXXXXXXXXXXXXXXXXXXXXXXX...",
"..X.XXXOOOOOXXXoooooXXXOOOOOXXXoooooXXXOOOOOXXXoooooXXXOOOOOXX...",
"..XXoXOOOOOOOXoooooooXOOOOOOOXoooooooXOOOOOOOXoooooooXOOOOOOOX...",
"..XXoXOOOOoooXoooooooXOOOOoooXoooooooXoooooooXoooooooXoooOOOOX...",
"..X.XXXOOOOoXXXoooooXXXOOOOoXXXoooooXXXoooooXXXoooooXXXooOOOXX...",
"....XXXXXXXXXXXXXXXXXXXXXXXXXXXXXXXXXXXXXXXXXXXXXXXXXXXXXXXXXX...",
"...XooooXXXXXXXXXXXoooooXXXXXXXXXXXoooooXXXoooooXXXoooooXXXoooX..",
"..XXoooooXXXXXXXXXoooooooXXXXXXXXXoooooooXoooooooXoooooooXooooXX.",
"..XXoooooXXXXX...XoooooooXXXXX....XXoooooXooooooo.XXoooooXooooXX.",
"...XooooXXXXXX...XXoooooXXXXXX.....XooooXXXoooooX..XooooXXXoooX..",
"....XXXXXXXXXX...XXXXXXXXXXXXX......XXXXXXXXXXXXX...XXXXXXXXXX...",
"....XXXXXXXXXXXXXXXXXXXXXXXXXXXXXXXXXXXXXXXXXXXXXXXXXXXXXXXXXX...",
"...XoooXXXOOOOOXXXoOOOOXXXoooooXXXOOOOOXXXoooooXXXOOOOOXXXooooX..",
"...XooooXOOOOOOOXoooOOOOXoooooooXOOOOOOOXooooooOXOOOOOOOXoooooXX.",
"...XooooXOOOOOOOXooooOOOXoooooooXOOOOOOOXoooooOOXOOOOOOOXoooooXX.",
"...XoooXXXOOOOOXXXooooOXXXoooooXXXOOOOOXXXoooOOXXXOOOOOXXXooooX..",
"....XXXXXXXXXXXXXXXXXXXXXXXXXXXXXXXXXXXXXXXXXXXXXXXXXXXXXXXXXX...",
"..XXXXXoooooXXXoooooXXXOooooXXXoooooXXXoooooXXXoooooXXXooOOOXX...",
"..XXoXoooooooXoooooooXOOOooooXoooooooXoooooooXoooooooXoooOOOOX...",
"..XXoXoooOoooXoooooooXOOOOoooXoooooooXoooooooXoooooooXoooOOOOX...",
"..XXXXXooOOoXXXoooooXXXOOOOoXXXoooooXXXoooooXXXoooooXXXooOOOXX...",
"....XXXXXXXXXXXXXXXXXXXXXXXXXXXXXXXXXXXXXXXXXXXXXXXXXXXXXXXXXX...",
"...XooooXXXXXXXXXXXoooooXXXXXXXXXXXoooooXXXoooooXXXoooooXXXXXX...",
"...XoooooXXXXXXXXXoooooooXXXXXXXXXoooooooXoooooooXoooooooXXXXX...",
"...XoooooXXXXX...XoooooooXXXXX....XXoooooXooooooo.XXoooooXXXXX...",
"...XooooXXXXXX...XXoooooXXXXXX.....XooooXXXoooooX..XooooXXXXXX...",
"....XXXXXXXXXX...XXXXXXXXXXXXX......XXXXXXXXXXXXX...XXXXXXXXXX...",
"....XXXXXXXXXX...XXXXXXXXXXXXX......XXXXXXXXXXXXX...XXXXXXXXXX...",
"...XoooXXXooooX..XoooooXXXooooX....XoooXXXOOOOOXX..XoooXXXooooX..",
"...XooooXoooooXX.oooooooXoooooXX.XXXooooXOOOOOOOXXXXooooXoooooXX.",
"...XooooXoooooooXoooooooXoooooooXoooooooXOOOOOOOXoooooooXoooooXX.",
"...XoooXXXoooooXXXoooooXXXoooooXXXoooooXXXOOOOOXXXoooooXXXooooX..",
"....XXXXXXXXXXXXXXXXXXXXXXXXXXXXXXXXXXXXXXXXXXXXXXXXXXXXXXXXXX...",
"..XXXXXooOOOXXXoooooXXXOOOOOXXXoooooXXXOooooXXXoooooXXXOoOOOXX...",
"..XXoXoooOOOOXoooooooXOOOOOOOXoooooooXOOOooooXoooooooXOOOOOOOX...",
"..XXoXoooooooXoooooooXOOOOOOOXoooooooXOOOOoooXoooooooXOOOOOOOX...",
"..XXXXXoooooXXXoooooXXXOOOOOXXXoooooXXXOOOOoXXXoooooXXXOOOOOXX...",
"....XXXXXXXXXXXXXXXXXXXXXXXXXXXXXXXXXXXXXXXXXXXXXXXXXXXXXXXXXX...",
"...XooooXXXoooooXXXoooooXXXoooooXXXoooooXXXoooooXXXoooooXXXXXX...",
"...XoooooXoooooooXoooooooXoooooooXoooooooXoooooooXoooooooXXXXX...",
"...XoooooXoooooooXoooooooXoooooooXoooooooXoooooooXoooooooXXXXX...",
"...XooooXXXoooooXXXoooooXXXoooooXXXoooooXXXoooooXXXoooooXXXXXX...",
"....XXXXXXXXXXXXXXXXXXXXXXXXXXXXXXXXXXXXXXXXXXXXXXXXXXXXXXXXXX...",
"....XXXXXXXXXX...XXXXXXXXXXXXX......XXXXXXXXXXXXX...XXXXXXXXXX...",
"....XXXXXXooooX..XOOOOOXXXooooX....XoooXXXoooooXX..XoooXXXooooX..",
"....XXXXXoooooXX.OOOOOOOXoooooXX.XXXooooXoooooooXXXXooooXoooooXX.",
"....XXXXXoooooooXOOOOOOOXoooooooXoooooooXoooooooXoooooooXoooooXX.",
"....XXXXXXoooooXXXOOOOOXXXoooooXXXoooooXXXoooooXXXoooooXXXooooX..",
"....XXXXXXXXXXXXXXXXXXXXXXXXXXXXXXXXXXXXXXXXXXXXXXXXXXXXXXXXXX...",
"...XXXXOOOOOXXXoooooXXXooOOOXXXoooooXXXOooooXXXoooooXXXOooooXX...",
"...XoXOOOOOOOXoooooooXoooOOOOXoooooooXOOOooooXoooooooXOOOooooX...",
"...XoXOOOOOOOXoooooooXoooooooXoooooooXoooooooXoooooooXoooooooX...",
"...XXXXOOOOOXXXoooooXXXoooooXXXoooooXXXoooooXXXoooooXXXoooooXX...",
"....XXXXXXXXXXXXXXXXXXXXXXXXXXXXXXXXXXXXXXXXXXXXXXXXXXXXXXXXXX...",
"...XooooXXXoooooXXXoooooXXXXXXXXXXXoooooXXXXXXXXXXXoooooXXXoooX..",
"....XooooXooooooXXoooooooXXXXXXXXXoooooooXXXXXXXXXoooooooXooooX..",
".....XXXX.XXXXXXX.XXXXXXX.........XXXXXXX.........XXXXXXX.XXXXX..",
".................................................................",
".................................................................",
" ...XXXXXXXXXX...XXXXXXXXXXXXX......XXXXXXXXXXXXX...XXXXXXXXXX..."
};
