/* XPM */
static char *_c7a92a76f874c91a78cd423ed6b8a83EP66rdlSZ43w5Z8L[] = {
/* columns rows colors chars-per-pixel */
"65 65 8 1 ",
"  c None",
". c #141B1B",
"X c #E0394C",
"o c #74A334",
"O c #56864C",
"+ c #ADBC3A",
"@ c #9BA7AA",
"# c #E3F1F5",
/* pixels */
"                                                                 ",
"                                                                 ",
"                                                                 ",
"                                                                 ",
"                                                                 ",
"                                                                 ",
"                                                                 ",
"                                                                 ",
"                                                                 ",
"                                                                 ",
"                                                                 ",
"                                                                 ",
"                                                                 ",
"                                                                 ",
"                                                                 ",
"                                                                 ",
"                                                                 ",
"                                                                 ",
"                                                                 ",
"                          .....  .....                           ",
"                         .+++++..+++++.                          ",
"                        .++++++oo++++++.                         ",
"                        .++++++++++++++.                         ",
"                      ...++++++++++++++...                       ",
"                    ..++++++++++++++++++++..                     ",
"                   .++++++####++++####++++++.                    ",
"                  .++++++#....#++#....#++++++.                   ",
"                 .XX+++++######++######+++++XX.                  ",
"                .XXXX+++++####++++####+++++XXXX.                 ",
"                .XXXX++++++++++++++++++++++XXXX.                 ",
"                .XXX+++++++++oo++oo+++++++++XXX.                 ",
"                .++++++++++++++++++++++++++++++.                 ",
"                .##O+++++++++OOOOOO+++++++++O##.                 ",
"                .###OO+++++OO######OO+++++OO###.                 ",
"                 .####OOOOO##########OOOOO####.                  ",
"                 ..@########################@..                  ",
"                .+++@@####################@@+++.                 ",
"               .++++++oo@@@@@@@@@@@@@@@@@o++++++.                ",
"               .++++++oooooooooooooooooooo++++++.                ",
"               .+++++++oooooooooooooooooo+++++++.                ",
"                .++++++ooo++oOooooOo++ooo++++++.                 ",
"                 .o++++oo++++oOOOOo++++oo++++o.                  ",
"                .+++++ooo+++++OOOO+++++ooo+++++.                 ",
"                 ++++oooo++++++OO++++++oooo++++                  ",
"                          ++++    ++++                           ",
"                                                                 ",
"                                                                 ",
"                                                                 ",
"                                                                 ",
"                                                                 ",
"                                                                 ",
"                                                                 ",
"                                                                 ",
"                                                                 ",
"                                                                 ",
"                                                                 ",
"                                                                 ",
"                                                                 ",
"                                                                 ",
"                                                                 ",
"                                                                 ",
"                                                                 ",
"                                                                 ",
"                                                                 ",
"                                                                 "
};
