/* XPM */
static char *_56e0e4eab0d4e78f511f02c65c89ed0DZ2Q6QO6jNQnjeRq[] = {
/* columns rows colors chars-per-pixel */
"65 65 10 1 ",
"  c None",
". c #141B1B",
"X c #3B3643",
"o c #4E484A",
"O c #695953",
"+ c #965746",
"@ c #816855",
"# c #BD7959",
"$ c #C69469",
"% c #D2B37D",
/* pixels */
"XXXXXXXXXXXXXXXXXXXXXXXXXXXXXXXXXXXXXXXXXXXXXXXXXXXXXXXXXXXXXXXXX",
"XXXXXXXXXXXXXXXXXXXXXXXXXXXXXXXXXXXXXXXXXXXXXXXXXXXXXXXXXXXXXXXXX",
"XXXooooXXoooooooXoooooooXoooooooXoooooooXoooooooXXXXXXXXXoooooXXX",
"XXoooOOOoOOOOOOOoOOOOOOOoOOOOOOOoOOOOOOOoOOOOOOOooooooooooOOOooXX",
"XXXoOOOoooOOOOOoooOOOOOoooOOOOOoooOOOOOoooOOOOOoooooooooooOOOOoXX",
"XXXXooooooooooooooooooooooooooooooooooooooooooooooooooooooooooXXX",
"XXoXooo@@@@@oooOOOOOooo@@@@@oooOOOOOooo@@@@@oooOOOOOooo@@@@@ooXXX",
"XXooOo@@@@@@@oOOOOOOOo@@@@@@@oOOOOOOOo@@@@@@@oOOOOOOOo@@@@@@@oXXX",
"XXooOo@@@@OOOoOOOOOOOo@@@@OOOoOOOOOOOoOOOOOOOoOOOOOOOoOOO@@@@oXXX",
"XXoXooo@@@@OoooOOOOOooo@@@@OoooOOOOOoooOOOOOoooOOOOOoooOO@@@ooXXX",
"XXXXooooooooooooooooooooooooooooooooooooooooooooooooooooooooooXXX",
"XXXoOOOOoooooooooooOOOOOooo...........OOoooOOOOOoooOOOOOoooOOOoXX",
"XXooOOOOOoooooooooOOOOOO...$$$$$$$$$$$..OoOOOOOOOoOOOOOOOoOOOOooX",
"XXooOOOOOoooooXXXoOOOOO.$$$$$$$$$$$$$$$$...OOOOOOXooOOOOOoOOOOooX",
"XXXoOOOOooooooXXXooOOO.$$$$$$$$$$$$$$$$$$%%.OOOOoXXoOOOOoooOOOoXX",
"XXXXooooooooooXXXoooo.$$$$$$$$$$$$$$$$$$$%%%.ooooXXXooooooooooXXX",
"XXXXoooooooooooooooo.+$$$$$$$$$$$$$$$$$$$%%%.oooooooooooooooooXXX",
"XXXoOOOooo@@@@@oooO@.+$$$$$$$$$$$$$$$$$$$$%%.OOooo@@@@@oooOOOOoXX",
"XXXoOOOOo@@@@@@@oOOO.$$$$$$$$$$$$$$$$$$$$$%#.OO@o@@@@@@@oOOOOOooX",
"XXXoOOOOo@@@@@@@oOOO.%$$$$$$$$$$$$$$$$$$$$%##.@@o@@@@@@@oOOOOOooX",
"XXXoOOOooo@@@@@oooOO.%$$$$$$$$$$$$$$$$$$$$%+#.@ooo@@@@@oooOOOOoXX",
"XXXXoooooooooooooooo.%%$$$$$$$$$$$$$$$$$$$%+#.ooooooooooooooooXXX",
"XXoooooOOOOOoooOOOO.#%%%$$$$$$$$$$$$$$$$$$++#.oOOOOOoooOO@@@ooXXX",
"XXooOoOOOOOOOoOOOOO.###%%%%$$$$$$$$$$$$$++++#.OOOOOOOoOOO@@@@oXXX",
"XXooOoOOO@OOOoOOOOO.+###%%%%%%%$$$$$+++++++%%.OOOOOOOoOOO@@@@oXXX",
"XXoooooOO@@OoooOOOO.+#####++++++++++++++++#%%.oOOOOOoooOO@@@ooXXX",
"XXXXooooooooooooooo.+#######+++++++++++++###+.ooooooooooooooooXXX",
"XXXoOOOOooooooooooo.++%%###+++++++++++++###+..........OOooooooXXX",
"XXXoOOOOOoo.........+++++++++++++++++###+++$$$$$$$$$$$..OoooooXXX",
"XXXoOOOO...$$$$$$$$$$$++++++++++++++++++$$$$$$$$$$$$$$$$...oooXXX",
"XXXoOOO.$$$$$$$$$$$$$$$$+++++++++++++++$$$$$$$$$$$$$$$$$$%%.ooXXX",
"XXXXoo.$$$$$$$$$$$$$$$$$$%%+++++++++++$$$$$$$$$$$$$$$$$$$%%%.oXXX",
"XXXXo.$$$$$$$$$$$$$$$$$$$%%%+####+++++$$$$$$$$$$$$$$$$$$$%%%.oXXX",
"XXXo.+$$$$$$$$$$$$$$$$$$$%%%+######+++$$$$$$$$$$$$$$$$$$$$%%.OoXX",
"XXXo.+$$$$$$$$$$$$$$$$$$$$%%+++++++.+$$$$$$$$$$$$$$$$$$$$$%#.OooX",
"XXXo.$$$$$$$$$$$$$$$$$$$$$%#++.++++.+%$$$$$$$$$$$$$$$$$$$$%##.ooX",
"XXXo.%$$$$$$$$$$$$$$$$$$$$%##+.++++.+%$$$$$$$$$$$$$$$$$$$$%+#.oXX",
"XXXX.%$$$$$$$$$$$$$$$$$$$$%+#+..++..+%%$$$$$$$$$$$$$$$$$$$%+#.XXX",
"XXoo.%%$$$$$$$$$$$$$$$$$$$%+#+.....+#%%%$$$$$$$$$$$$$$$$$$++#.XXX",
"XXo.#%%%$$$$$$$$$$$$$$$$$$++#+.....+###%%%%$$$$$$$$$$$$$++++#.XXX",
"XXo.###%%%%$$$$$$$$$$$$$++++#+.....++###%%%%%%%$$$$$+++++++%%.XXX",
"XXo.+###%%%%%%%$$$$$+++++++%%+.....++#####++++++++++++++++#%%.XXX",
"XXX.+#####++++++++++++++++#%%+.....++#######+++++++++++++###+.XXX",
"XXX.+#######+++++++++++++###++.....+++%%###+++++++++++++###++.XXX",
"XXX.++%%###+++++++++++++###+++....+###+++++++++++++++#####+++#.XX",
"XX.###+++++++++++++++#####+++#....+####+++++++++++++++++++++##.XX",
"XX.####+++++++++++++++++++++##.....+####+++++++++++++++++++%%#.XX",
"XX.+####+++++++++++++++++++%%#..++.+######+++++++++++++++##%%+.XX",
"XX.+######+++++++++++++++##%%+.+++.++############++++++#####++.XX",
"XX.++############++++++#####++.+X+.++++##%%%#######+++++++++++.XX",
"XX.++++##%%%#######+++++++++++.oXoo.++++++++++++++++++++++++++.oX",
"XXX.++++++++++++++++++++++++++.OoOO.+++++++++++++++++++++++++.ooX",
"XXX.+++++++++++++++++++++++++.OoooOO.+++++++++++++++++++++++.OoXX",
"XXXX.+++++++++++++++++++++++.oooooooo.+++++++++++++++++++++.ooXXX",
"XXXoo.+++++++++++++++++++++.oooOOOOOooo@OOOOoooOOOOOooo@OOOOooXXX",
"XXXoOo@@@@@@@oOOOOOOOoOOO@@@@oOOOOOOOo@@@OOOOoOOOOOOOo@@@OOOOoXXX",
"XXXoOo@@@@@@@oOOOOOOOoOOOOOOOoOOOOOOOoOOOOOOOoOOOOOOOoOOOOOOOoXXX",
"XXXoooo@@@@@oooOOOOOoooOOOOOoooOOOOOoooOOOOOoooOOOOOoooOOOOOooXXX",
"XXXXooooooooooooooooooooooooooooooooooooooooooooooooooooooooooXXX",
"XXXoOOOOoooOOOOOoooOOOOOoooooooooooOOOOOoooooooooooOOOOOoooOOOoXX",
"XXXXoOOOOoOOOOOOooOOOOOOOoooooooooOOOOOOOoooooooooOOOOOOOoOOOOoXX",
"XXXXXooooXoooooooXoooooooXXXXXXXXXoooooooXXXXXXXXXoooooooXoooooXX",
"XXXXXXXXXXXXXXXXXXXXXXXXXXXXXXXXXXXXXXXXXXXXXXXXXXXXXXXXXXXXXXXXX",
"XXXXXXXXXXXXXXXXXXXXXXXXXXXXXXXXXXXXXXXXXXXXXXXXXXXXXXXXXXXXXXXXX",
" XXXooooooooooXXXoooooooooooooXXXXXXoooooooooooooXXXooooooooooXXX"
};
